<svg width="138" height="43" viewBox="0 0 138 43" fill="none" xmlns="http://www.w3.org/2000/svg">
<path id="Union" fillRule="evenodd" clipRule="evenodd" d="M2.34419 0.927765H24.7379C32.013 0.927765 37.9107 6.82543 37.9107 14.1006V15.6563C37.9107 15.6701 37.8995 15.6813 37.8857 15.6813C37.872 15.6813 37.8608 15.6925 37.8608 15.7062V36.4398C37.8608 37.4583 37.0351 38.284 36.0166 38.284H24.9815C23.963 38.284 23.1373 37.4583 23.1373 36.4398L23.1373 17.5255C23.1373 16.507 22.3116 15.6813 21.2931 15.6813H2.34419C1.32567 15.6813 0.5 14.8556 0.5 13.8371V2.77196C0.5 1.75344 1.32567 0.927765 2.34419 0.927765ZM73.911 8.57323H80.2895V11.9329H80.4355C81.1172 10.7968 82.0586 9.83917 83.2596 9.06013C84.4606 8.28108 85.9376 7.89156 87.6904 7.89156C89.281 7.89156 90.6768 8.29731 91.8778 9.10882C93.0788 9.88787 93.9877 10.9428 94.6045 12.2737H94.7018C95.5458 10.9104 96.6008 9.83917 97.8667 9.06013C99.1651 8.28108 100.61 7.89156 102.2 7.89156C104.829 7.89156 106.858 8.68684 108.286 10.2774C109.715 11.8355 110.429 13.9941 110.429 16.7532V33.5514H103.807V17.8731C103.807 16.4448 103.466 15.3737 102.784 14.6595C102.135 13.9454 101.194 13.5883 99.9604 13.5883C98.5646 13.5883 97.461 14.0915 96.6495 15.0977C95.8704 16.0716 95.4809 17.3862 95.4809 19.0417V33.5514H88.859V17.8731C88.859 16.4448 88.5182 15.3737 87.8365 14.6595C87.1873 13.9454 86.2459 13.5883 85.0124 13.5883C83.6491 13.5883 82.5617 14.0915 81.7502 15.0977C80.9387 16.0716 80.5329 17.3862 80.5329 19.0417V33.5514H73.911V8.57323ZM125.522 42.0722C122.081 42.0722 119.355 41.3743 117.342 39.9786C115.362 38.6152 114.193 36.7163 113.836 34.2818H120.41C120.669 35.0608 121.172 35.71 121.919 36.2294C122.698 36.7812 123.867 37.0571 125.425 37.0571C129.125 37.0571 130.975 35.3205 130.975 31.8473V29.1206H130.829C130.083 29.9646 129.206 30.6624 128.2 31.2143C127.194 31.7661 125.895 32.042 124.305 32.042C122.909 32.042 121.546 31.7823 120.215 31.263C118.916 30.7111 117.748 29.9321 116.709 28.9258C115.703 27.8871 114.875 26.6374 114.226 25.1767C113.609 23.6835 113.301 21.9956 113.301 20.1129C113.301 18.2626 113.561 16.5909 114.08 15.0977C114.632 13.5721 115.378 12.2737 116.32 11.2025C117.293 10.1313 118.43 9.31981 119.728 8.76799C121.059 8.1837 122.52 7.89156 124.11 7.89156C125.668 7.89156 127.015 8.1837 128.151 8.76799C129.32 9.35227 130.278 10.1638 131.024 11.2025H131.122V8.57323H137.5V31.6525C137.5 33.4053 137.24 34.8985 136.721 36.132C136.202 37.3655 135.471 38.4042 134.53 39.2482C133.491 40.222 132.193 40.9361 130.635 41.3906C129.077 41.845 127.372 42.0722 125.522 42.0722ZM125.425 26.7348C126.463 26.7348 127.356 26.5562 128.103 26.1992C128.849 25.8421 129.45 25.3552 129.904 24.7384C130.391 24.1217 130.748 23.4076 130.975 22.5961C131.203 21.7846 131.316 20.9081 131.316 19.9668C131.316 19.0579 131.186 18.1977 130.927 17.3862C130.7 16.5422 130.342 15.8119 129.856 15.1951C129.369 14.5784 128.752 14.0915 128.005 13.7344C127.259 13.3773 126.382 13.1988 125.376 13.1988C123.688 13.1988 122.325 13.8156 121.286 15.0491C120.28 16.2501 119.777 17.9056 119.777 20.0155C119.777 22.1579 120.28 23.8133 121.286 24.9819C122.325 26.1505 123.704 26.7348 125.425 26.7348ZM63.7123 32.3828C63.8421 32.9022 64.0044 33.2917 64.1992 33.5514H70.5777V33.308C69.9934 32.886 69.7012 31.7336 69.7012 29.8509V17.1427C69.7012 14.2213 68.8735 11.9653 67.218 10.3748C65.595 8.75176 62.917 7.94025 59.1841 7.94025C57.3663 7.94025 55.792 8.16747 54.4611 8.62191C53.1302 9.07636 52.0266 9.67687 51.1502 10.4235C50.2737 11.17 49.6083 12.0465 49.1539 13.0527C48.6994 14.0266 48.456 15.0653 48.4235 16.1689H54.315C54.4124 14.9679 54.8506 14.0915 55.6297 13.5396C56.4087 12.9554 57.5773 12.6632 59.1354 12.6632C60.5312 12.6632 61.5699 12.9391 62.2516 13.491C62.9657 14.0103 63.3228 14.7244 63.3228 15.6333C63.3228 16.5747 62.8359 17.2077 61.8621 17.5323C60.8883 17.8569 59.3626 18.1652 57.2852 18.4574C55.8894 18.6521 54.5747 18.9281 53.3412 19.2851C52.1402 19.6097 51.0852 20.0804 50.1764 20.6971C49.2675 21.3139 48.5533 22.0929 48.034 23.0343C47.5146 23.9756 47.2549 25.128 47.2549 26.4913C47.2549 28.9907 48.0664 30.8897 49.6895 32.1881C51.3125 33.4865 53.4062 34.1357 55.9705 34.1357C57.0417 34.1357 57.9668 34.0383 58.7459 33.8436C59.5249 33.6813 60.1904 33.454 60.7422 33.1619C61.3265 32.8698 61.8134 32.5289 62.2029 32.1394C62.6249 31.7174 62.9982 31.263 63.3228 30.7761H63.4202C63.4851 31.3279 63.5825 31.8635 63.7123 32.3828ZM60.0605 29.1206C59.3464 29.3803 58.5187 29.5101 57.5773 29.5101C56.4087 29.5101 55.4674 29.2829 54.7533 28.8284C54.0391 28.3415 53.6821 27.5138 53.6821 26.3452C53.6821 25.1767 54.1041 24.3327 54.948 23.8133C55.792 23.294 57.0904 22.8395 58.8433 22.45C59.6872 22.2552 60.515 22.0605 61.3265 21.8657C62.1704 21.6385 62.8846 21.3463 63.4688 20.9893V24.7384C63.4688 25.3552 63.339 25.9557 63.0793 26.54C62.8196 27.0918 62.4301 27.595 61.9108 28.0494C61.4239 28.4714 60.8071 28.8284 60.0605 29.1206ZM22.1034 28.0635C22.1034 34.0291 17.2673 38.8652 11.3017 38.8652C5.33608 38.8652 0.5 34.0291 0.5 28.0635C0.5 22.0979 5.33608 17.2618 11.3017 17.2618C17.2673 17.2618 22.1034 22.0979 22.1034 28.0635Z" fill="#252422"/>
</svg>
